<svg xmlns="http://www.w3.org/2000/svg" xmlns:xlink="http://www.w3.org/1999/xlink" width="500" zoomAndPan="magnify" viewBox="0 0 375 374.999991" height="500" preserveAspectRatio="xMidYMid meet" version="1.0"><defs><clipPath id="5552de595b"><path d="M 74.027344 89.585938 L 301 89.585938 L 301 351.335938 L 74.027344 351.335938 Z M 74.027344 89.585938 " clip-rule="nonzero"/></clipPath><clipPath id="88333f7ede"><path d="M 159.816406 23.429688 L 215.316406 23.429688 L 215.316406 78.929688 L 159.816406 78.929688 Z M 159.816406 23.429688 " clip-rule="nonzero"/></clipPath></defs><g clip-path="url(#5552de595b)"><path fill="#ffffff" d="M 267.742188 304.832031 C 252.207031 282.210938 225.425781 242.171875 218.242188 224.691406 C 213.804688 213.90625 210.058594 199.839844 208.417969 193.296875 L 214.058594 193.296875 C 216.503906 198.179688 224.234375 213.203125 232.109375 224.332031 C 245.949219 243.890625 282.050781 283.292969 292.421875 294.519531 C 287.976562 296.753906 279.445312 300.75 267.742188 304.832031 Z M 239.34375 326.035156 C 228.253906 299.644531 207.824219 249.453125 204.054688 229.167969 C 201.695312 216.464844 200.976562 199.960938 200.769531 193.296875 L 202.003906 193.296875 C 203.417969 199.089844 207.457031 214.835938 212.484375 227.054688 C 219.808594 244.886719 245.796875 283.890625 261.585938 306.890625 C 262.898438 308.804688 264.136719 310.601562 265.289062 312.273438 C 267.734375 315.800781 269.785156 318.738281 271.292969 320.886719 C 265.527344 322.039062 254.503906 324.058594 239.34375 326.035156 Z M 239.191406 341.59375 C 230.53125 342.761719 208.996094 345.320312 186.59375 345.320312 C 167.566406 345.320312 143.5 342.667969 134.03125 341.527344 C 134.753906 339.84375 135.6875 337.675781 136.78125 335.101562 C 137.550781 333.292969 138.40625 331.28125 139.324219 329.101562 C 150.441406 302.722656 171.300781 251.589844 175.253906 230.308594 C 177.746094 216.90625 178.457031 199.996094 178.652344 193.296875 L 194.539062 193.296875 C 194.730469 199.996094 195.445312 216.90625 197.929688 230.308594 C 201.773438 251 221.601562 299.898438 232.917969 326.839844 C 233.8125 328.972656 234.65625 330.96875 235.433594 332.800781 C 236.972656 336.433594 238.257812 339.429688 239.191406 341.59375 Z M 101.609375 321.296875 C 103.308594 318.875 105.792969 315.316406 108.796875 310.96875 C 109.960938 309.28125 111.203125 307.484375 112.507812 305.582031 C 128.359375 282.429688 153.511719 244.550781 160.707031 227.054688 C 165.734375 214.835938 169.773438 199.089844 171.1875 193.296875 L 172.421875 193.296875 C 172.21875 199.960938 171.5 216.460938 169.140625 229.167969 C 165.265625 250.027344 143.769531 302.503906 132.925781 328.207031 C 118.152344 325.957031 107.117188 322.96875 101.609375 321.296875 Z M 82.671875 294.351562 C 93.242188 282.917969 129.070312 243.796875 142.839844 224.332031 C 150.714844 213.203125 158.445312 198.179688 160.890625 193.296875 L 164.765625 193.296875 C 163.132812 199.839844 159.386719 213.902344 154.949219 224.691406 C 147.894531 241.839844 121.976562 280.730469 106.324219 303.550781 C 95.414062 299.847656 87.160156 296.367188 82.671875 294.351562 Z M 154.191406 121.46875 C 154.433594 121.054688 154.574219 120.589844 154.605469 120.113281 L 156.15625 95.808594 L 161.164062 95.808594 L 163.734375 110.265625 C 163.835938 113.695312 165.675781 116.792969 168.589844 118.40625 L 186.4375 128.28125 C 187.375 128.800781 188.515625 128.800781 189.453125 128.28125 L 207.300781 118.40625 C 210.214844 116.792969 212.054688 113.695312 212.15625 110.265625 L 214.730469 95.808594 L 219.734375 95.808594 L 221.285156 120.113281 C 221.316406 120.585938 221.457031 121.050781 221.695312 121.464844 C 221.796875 121.640625 231.675781 139.222656 221.945312 151.597656 C 218.78125 155.625 215.722656 161.921875 214.289062 165.0625 L 161.597656 165.0625 C 160.164062 161.921875 157.109375 155.625 153.945312 151.597656 C 144.214844 139.222656 154.09375 121.640625 154.191406 121.46875 Z M 162.371094 187.070312 L 162.371094 171.796875 L 212.964844 171.796875 L 212.964844 187.070312 Z M 299.742188 293.253906 C 299.277344 292.75 252.84375 242.859375 237.191406 220.738281 C 229.09375 209.292969 220.867188 193.007812 219.1875 189.628906 L 219.1875 169.371094 C 219.339844 169.015625 223.140625 160.148438 226.839844 155.445312 C 238.101562 141.121094 229.445312 122.800781 227.453125 119.027344 L 225.761719 92.5 C 225.65625 90.863281 224.296875 89.585938 222.652344 89.585938 L 212.121094 89.585938 C 210.609375 89.585938 209.320312 90.667969 209.054688 92.152344 L 205.980469 109.421875 C 205.953125 109.601562 205.9375 109.785156 205.9375 109.96875 C 205.9375 111.230469 205.289062 112.402344 204.285156 112.957031 L 187.945312 122 L 171.605469 112.957031 C 170.601562 112.402344 169.957031 111.230469 169.957031 109.96875 C 169.957031 109.785156 169.9375 109.601562 169.90625 109.421875 L 166.835938 92.152344 C 166.570312 90.667969 165.277344 89.585938 163.769531 89.585938 L 153.234375 89.585938 C 151.59375 89.585938 150.234375 90.863281 150.128906 92.5 L 148.4375 119.027344 C 146.445312 122.800781 137.789062 141.121094 149.050781 155.445312 C 151.953125 159.140625 154.933594 165.433594 156.144531 168.117188 L 156.144531 189.027344 L 156.074219 188.996094 C 155.984375 189.179688 146.789062 207.976562 137.757812 220.738281 C 122.105469 242.859375 75.675781 292.75 75.207031 293.253906 C 74.539062 293.96875 74.25 294.960938 74.425781 295.929688 C 74.59375 296.894531 75.214844 297.71875 76.09375 298.160156 C 76.566406 298.394531 86.492188 303.328125 102.636719 308.910156 C 97.5625 316.261719 94.222656 320.980469 94.089844 321.164062 C 93.53125 321.957031 93.371094 322.964844 93.660156 323.890625 C 93.953125 324.820312 94.65625 325.558594 95.570312 325.890625 C 96.46875 326.210938 109.570312 330.886719 130.398438 334.175781 C 128.144531 339.476562 126.746094 342.699219 126.671875 342.859375 C 126.28125 343.75 126.332031 344.777344 126.816406 345.628906 C 127.292969 346.480469 128.144531 347.054688 129.117188 347.1875 C 129.441406 347.226562 162.058594 351.546875 186.59375 351.546875 C 215.980469 351.546875 243.871094 347.214844 244.148438 347.175781 C 245.097656 347.023438 245.929688 346.445312 246.390625 345.597656 C 246.855469 344.753906 246.902344 343.742188 246.515625 342.859375 C 246.429688 342.675781 244.652344 338.574219 241.855469 331.976562 C 264.019531 329.027344 277.046875 326.046875 277.261719 325.992188 C 278.273438 325.761719 279.101562 325.039062 279.464844 324.066406 C 279.835938 323.097656 279.703125 322.007812 279.101562 321.164062 C 278.980469 320.992188 276.007812 316.800781 271.425781 310.171875 C 288.566406 304.054688 298.578125 298.328125 299.019531 298.070312 C 299.839844 297.597656 300.402344 296.773438 300.539062 295.835938 C 300.6875 294.898438 300.390625 293.949219 299.742188 293.253906 " fill-opacity="1" fill-rule="nonzero"/></g><g clip-path="url(#88333f7ede)"><path fill="#ffffff" d="M 187.496094 23.429688 C 202.722656 23.429688 215.175781 35.886719 215.175781 51.109375 C 215.175781 66.332031 202.722656 78.789062 187.496094 78.789062 C 172.273438 78.789062 159.816406 66.332031 159.816406 51.109375 C 159.816406 35.886719 172.273438 23.429688 187.496094 23.429688 Z M 187.496094 26.496094 C 173.960938 26.496094 162.882812 37.570312 162.882812 51.109375 C 162.882812 64.648438 173.960938 75.722656 187.496094 75.722656 C 201.035156 75.722656 212.109375 64.648438 212.109375 51.109375 C 212.109375 37.570312 201.035156 26.496094 187.496094 26.496094 " fill-opacity="1" fill-rule="evenodd"/></g><path fill="#ffffff" d="M 181.902344 55.351562 L 197.847656 39.410156 C 199.222656 38.035156 201.449219 38.035156 202.820312 39.410156 C 204.191406 40.78125 204.191406 43.007812 202.820312 44.378906 L 184.40625 62.792969 C 184.402344 62.796875 184.394531 62.804688 184.390625 62.808594 C 183.015625 64.183594 180.789062 64.183594 179.417969 62.808594 L 178.753906 62.148438 L 172.171875 55.566406 C 170.800781 54.191406 170.800781 51.964844 172.171875 50.59375 C 173.546875 49.222656 175.773438 49.222656 177.144531 50.59375 L 181.902344 55.351562 " fill-opacity="1" fill-rule="evenodd"/></svg>